<svg fill="#000000" xmlns="http://www.w3.org/2000/svg"  viewBox="0 0 16 16" width="64px" height="64px"><path d="M 7.5 1 C 3.915833 1 1 3.915833 1 7.5 C 1 11.084167 3.915833 14 7.5 14 C 11.084167 14 14 11.084167 14 7.5 C 14 3.915833 11.084167 1 7.5 1 z M 7.5 2 C 9.4350826 2 11.129416 2.99471 12.109375 4.5 L 7.5 4.5 C 6.541667 4.5 5.760256 4.8773778 5.2519531 5.4492188 C 4.9626403 5.7746958 4.7681965 6.1570505 4.6464844 6.5605469 L 3.2050781 4.0625 C 4.2119048 2.8047437 5.7587605 2 7.5 2 z M 2.5976562 5.0078125 L 4.7734375 8.7753906 C 4.8940404 9.0526809 5.0451514 9.3181292 5.2519531 9.5507812 C 5.760256 10.122622 6.541667 10.5 7.5 10.5 C 7.7149133 10.5 7.9172481 10.475348 8.1132812 10.439453 L 6.6738281 12.931641 C 4.0252606 12.533324 2 10.261896 2 7.5 C 2 6.6013299 2.2175435 5.7559434 2.5976562 5.0078125 z M 7.5 5.5 C 8.2083329 5.5 8.676923 5.7476222 9.0019531 6.1132812 C 9.3269832 6.4789403 9.5 6.9861111 9.5 7.5 C 9.5 7.8566018 9.4115624 8.2066284 9.2519531 8.5117188 L 9.2324219 8.5 L 9.0390625 8.8359375 C 9.0257332 8.8520651 9.0158389 8.8710972 9.0019531 8.8867188 C 8.676923 9.2523777 8.2083329 9.5 7.5 9.5 C 6.7916671 9.5 6.323077 9.2523777 5.9980469 8.8867188 C 5.8985642 8.7748007 5.818446 8.6462855 5.7480469 8.5117188 L 5.7675781 8.5 L 5.6464844 8.2890625 C 5.5522846 8.0404042 5.5 7.7725464 5.5 7.5 C 5.5 6.9861111 5.6730168 6.4789403 5.9980469 6.1132812 C 6.323077 5.7476223 6.7916671 5.5 7.5 5.5 z M 9.7851562 5.5 L 12.621094 5.5 C 12.862769 6.1202489 13 6.792898 13 7.5 C 13 10.443426 10.700843 12.829643 7.796875 12.984375 L 9.9042969 9.3339844 C 10.297849 8.796189 10.5 8.1492981 10.5 7.5 C 10.5 6.7843206 10.265083 6.0650641 9.7851562 5.5 z"/></svg>